<?xml version="1.0" standalone="no"?>
<!DOCTYPE svg PUBLIC "-//W3C//DTD SVG 20010904//EN"
 "http://www.w3.org/TR/2001/REC-SVG-20010904/DTD/svg10.dtd">
<svg version="1.0" xmlns="http://www.w3.org/2000/svg"
 width="512.000000pt" height="512.000000pt" viewBox="0 0 512.000000 512.000000"
 preserveAspectRatio="xMidYMid meet">
<metadata>
Created by potrace 1.11, written by Peter Selinger 2001-2013
</metadata>
<g transform="translate(0.000000,512.000000) scale(0.100000,-0.100000)"
fill="#000000" stroke="none">
<path d="M2185 5113 c-27 -2 -54 -8 -59 -14 -6 -5 -34 -9 -62 -9 -29 0 -56 -4
-59 -10 -3 -5 -21 -10 -40 -10 -19 0 -37 -4 -40 -10 -3 -5 -22 -10 -41 -10
-19 0 -43 -4 -54 -10 -11 -5 -29 -14 -40 -20 -11 -5 -29 -10 -39 -10 -11 0
-23 -4 -26 -10 -3 -5 -15 -10 -26 -10 -10 0 -28 -4 -39 -10 -11 -5 -29 -14
-40 -20 -11 -5 -25 -10 -32 -10 -19 0 -339 -161 -362 -182 -11 -10 -26 -18
-33 -18 -7 0 -13 -4 -13 -10 0 -5 -6 -10 -13 -10 -7 0 -28 -13 -47 -30 -19
-16 -40 -29 -46 -30 -6 0 -19 -9 -29 -20 -10 -11 -22 -20 -28 -20 -41 0 -507
-467 -507 -508 0 -5 -13 -21 -30 -37 -16 -16 -30 -34 -30 -40 0 -6 -12 -22
-26 -36 -14 -13 -33 -40 -41 -59 -9 -19 -28 -53 -43 -75 -14 -22 -38 -65 -53
-96 -15 -32 -34 -62 -42 -69 -8 -7 -15 -20 -15 -30 0 -10 -13 -44 -30 -75 -16
-31 -30 -63 -30 -71 0 -7 -9 -29 -20 -49 -11 -20 -20 -44 -20 -55 0 -10 -5
-22 -10 -25 -6 -3 -10 -17 -10 -30 0 -13 -5 -27 -10 -30 -5 -3 -10 -21 -10
-40 0 -19 -4 -37 -10 -40 -5 -3 -10 -17 -10 -30 0 -13 -4 -27 -10 -30 -5 -3
-10 -21 -10 -40 0 -19 -4 -37 -10 -40 -5 -3 -10 -30 -10 -59 0 -28 -6 -58 -12
-64 -10 -10 -13 -112 -13 -442 0 -330 3 -432 13 -441 6 -7 12 -37 12 -65 0
-29 5 -56 10 -59 6 -3 10 -19 10 -35 0 -16 5 -32 10 -35 6 -3 10 -24 10 -45 0
-21 5 -42 10 -45 5 -3 10 -15 10 -26 0 -10 5 -28 10 -39 6 -11 15 -29 20 -40
6 -11 10 -27 10 -35 0 -8 4 -24 10 -35 5 -11 15 -29 20 -40 6 -11 10 -27 10
-37 0 -9 6 -24 14 -32 26 -29 56 -92 50 -102 -3 -6 5 -23 18 -37 13 -15 40
-58 59 -97 18 -38 46 -89 61 -111 16 -23 28 -46 28 -51 0 -5 13 -22 30 -38 16
-16 30 -34 30 -40 0 -6 13 -24 30 -40 16 -16 30 -34 30 -40 0 -7 9 -20 20 -30
11 -10 20 -23 20 -29 0 -14 362 -376 376 -376 6 0 19 -9 29 -20 10 -11 23 -20
30 -20 6 0 24 -14 40 -30 16 -17 34 -30 40 -30 6 0 22 -12 36 -26 13 -14 40
-33 59 -41 19 -9 43 -23 52 -31 22 -19 349 -182 365 -182 7 0 28 -9 48 -20 20
-11 44 -20 55 -20 10 0 22 -4 25 -10 3 -5 17 -10 30 -10 13 0 27 -4 30 -10 3
-5 21 -10 40 -10 19 0 37 -5 40 -10 3 -6 17 -10 30 -10 13 0 27 -4 30 -10 3
-5 21 -10 40 -10 19 0 37 -5 40 -10 3 -6 30 -10 60 -10 30 0 57 -4 60 -10 3
-5 30 -10 60 -10 30 0 57 -5 60 -10 8 -14 642 -14 650 0 3 5 30 10 60 10 30 0
57 4 60 10 3 5 30 10 60 10 30 0 57 5 60 10 3 6 21 10 40 10 19 0 37 4 40 10
3 5 17 10 30 10 13 0 27 4 30 10 3 5 21 10 40 10 19 0 37 5 40 10 3 6 17 10
30 10 13 0 27 4 30 10 3 5 15 10 25 10 11 0 35 9 55 20 20 11 41 20 48 20 16
0 343 163 365 182 9 8 33 22 52 31 19 8 46 27 59 41 14 14 30 26 36 26 6 0 24
14 40 30 16 17 34 30 40 30 7 0 20 9 30 20 10 11 23 20 29 20 14 0 376 362
376 376 0 6 9 19 20 29 11 10 20 23 20 30 0 6 14 24 30 40 17 16 30 34 30 40
0 6 12 22 26 36 14 13 33 40 41 59 9 19 23 43 31 52 19 22 182 349 182 365 0
7 9 28 20 48 11 20 20 44 20 55 0 10 4 22 10 25 6 3 10 17 10 30 0 13 4 27 10
30 6 3 10 21 10 40 0 19 5 37 10 40 6 3 10 17 10 30 0 13 5 27 10 30 6 3 10
21 10 40 0 19 4 37 10 40 6 3 10 30 10 60 0 30 5 57 10 60 6 3 10 30 10 60 0
30 5 57 10 60 6 4 10 123 10 325 0 202 -4 321 -10 325 -5 3 -10 30 -10 60 0
30 -4 57 -10 60 -5 3 -10 30 -10 60 0 30 -4 57 -10 60 -5 3 -10 21 -10 40 0
19 -4 37 -10 40 -5 3 -10 17 -10 30 0 13 -4 27 -10 30 -5 3 -10 21 -10 40 0
19 -4 37 -10 40 -6 3 -10 17 -10 30 0 13 -4 27 -10 30 -6 3 -10 15 -10 25 0
11 -9 35 -20 55 -11 20 -20 41 -20 48 0 16 -163 343 -182 365 -8 9 -22 33 -31
52 -8 19 -27 46 -41 59 -14 14 -26 30 -26 36 0 6 -13 24 -30 40 -16 16 -30 34
-30 40 0 7 -9 20 -20 30 -11 10 -20 23 -20 29 0 13 -359 368 -408 404 -16 12
-34 22 -39 22 -5 0 -22 14 -38 30 -16 17 -34 30 -40 30 -6 0 -21 10 -33 23
-12 13 -42 34 -67 46 -24 12 -47 26 -50 31 -3 5 -43 27 -89 50 -46 22 -89 47
-96 55 -7 8 -20 15 -29 15 -9 0 -43 13 -76 30 -33 16 -65 30 -72 30 -7 0 -28
9 -48 20 -20 11 -44 20 -55 20 -10 0 -22 5 -25 10 -3 6 -17 10 -30 10 -13 0
-27 5 -30 10 -3 6 -21 10 -40 10 -19 0 -37 5 -40 10 -3 6 -17 10 -31 10 -13 0
-24 5 -24 10 0 6 -18 10 -39 10 -22 0 -43 5 -46 10 -3 6 -26 10 -50 10 -25 0
-45 5 -47 12 -3 9 -97 13 -394 14 -214 1 -411 0 -439 -3z"/>
</g>
</svg>
