<?xml version="1.0" standalone="no"?>
<!DOCTYPE svg PUBLIC "-//W3C//DTD SVG 20010904//EN"
 "http://www.w3.org/TR/2001/REC-SVG-20010904/DTD/svg10.dtd">
<svg version="1.0" xmlns="http://www.w3.org/2000/svg"
 width="600.000000pt" height="600.000000pt" viewBox="0 0 600.000000 600.000000"
 preserveAspectRatio="xMidYMid meet">
<metadata>
Created by potrace 1.11, written by Peter Selinger 2001-2013
</metadata>
<g transform="translate(0.000000,600.000000) scale(0.100000,-0.100000)"
fill="#000000" stroke="none">
<path d="M2905 5553 c-121 -4 -285 -24 -410 -49 -173 -36 -175 -36 -175 -41 0
-3 22 -30 50 -61 63 -70 125 -189 151 -289 40 -153 25 -372 -38 -563 -162
-481 -625 -894 -1105 -985 -117 -22 -296 -20 -394 5 -147 38 -286 122 -364
221 l-38 48 -31 -107 c-73 -251 -102 -459 -102 -732 0 -326 55 -637 159 -901
29 -74 30 -74 83 -92 84 -28 331 -74 466 -88 151 -15 475 -7 623 16 727 110
1377 523 1785 1135 303 454 451 978 432 1530 -9 258 -47 475 -126 720 l-30 95
-113 33 c-275 79 -548 114 -823 105z"/>
<path d="M5015 4543 c93 -366 112 -824 49 -1203 -128 -777 -577 -1481 -1234
-1932 -401 -276 -868 -446 -1360 -498 -140 -14 -466 -12 -615 5 -112 12 -303
46 -397 70 -16 4 -28 5 -28 2 0 -3 30 -27 68 -54 366 -264 772 -421 1227 -474
129 -14 421 -14 550 0 687 80 1293 412 1717 941 371 463 560 1005 560 1600 0
552 -162 1055 -485 1503 -27 37 -51 67 -54 67 -3 0 -2 -12 2 -27z"/>
</g>
</svg>
